<svg width="17" height="16" viewBox="0 0 17 16" fill="none" xmlns="http://www.w3.org/2000/svg">
<g clip-path="url(#clip0_302_394)">
<path d="M10.737 7.99995L5.73902 12.686C5.59841 12.8225 5.51373 13.0066 5.50153 13.2022C5.48933 13.3978 5.55047 13.591 5.67302 13.744C5.7306 13.8174 5.80293 13.8779 5.88534 13.9217C5.96775 13.9655 6.05842 13.9915 6.1515 13.9981C6.24458 14.0047 6.33801 13.9917 6.42577 13.96C6.51353 13.9283 6.59367 13.8785 6.66102 13.814L12.261 8.56395C12.3365 8.49069 12.3965 8.40302 12.4375 8.30614C12.4785 8.20926 12.4996 8.10514 12.4996 7.99995C12.4996 7.89477 12.4785 7.79065 12.4375 7.69377C12.3965 7.59689 12.3365 7.50922 12.261 7.43595L6.66102 2.18595C6.59367 2.12137 6.51353 2.07162 6.42577 2.0399C6.33801 2.00818 6.24458 1.9952 6.1515 2.00179C6.05842 2.00839 5.96775 2.03441 5.88534 2.07819C5.80293 2.12196 5.7306 2.18252 5.67302 2.25595C5.55047 2.40893 5.48933 2.60208 5.50153 2.79771C5.51373 2.99334 5.59841 3.1774 5.73902 3.31395L10.737 7.99995Z" fill="#11141A"/>
</g>
<defs>
<clipPath id="clip0_302_394">
<rect width="16" height="16" fill="white" transform="translate(0.5)"/>
</clipPath>
</defs>
</svg>
